<svg width="32" height="31" viewBox="0 0 32 31" fill="none" xmlns="http://www.w3.org/2000/svg">
<path d="M16 0C11.6533 0 11.1107 0.0190196 9.404 0.0912943C7.7 0.167373 6.54 0.422236 5.52 0.798825C4.468 1.18683 3.57467 1.70796 2.68533 2.5537C1.796 3.39945 1.24667 4.24772 0.84 5.24942C0.444 6.21942 0.174667 7.32256 0.096 8.94304C0.016 10.5661 0 11.0821 0 15.2157C0 19.3493 0.02 19.8654 0.096 21.4884C0.176 23.1076 0.444 24.212 0.84 25.182C1.248 26.1812 1.796 27.0319 2.68533 27.8778C3.57467 28.7222 4.46667 29.2458 5.52 29.6326C6.54133 30.008 7.70133 30.2653 9.404 30.3401C11.1107 30.4162 11.6533 30.4314 16 30.4314C20.3467 30.4314 20.8893 30.4124 22.596 30.3401C24.2987 30.2641 25.46 30.008 26.48 29.6326C27.5307 29.2446 28.4253 28.7222 29.3147 27.8778C30.2027 27.0319 30.7533 26.185 31.16 25.182C31.5547 24.212 31.8253 23.1076 31.904 21.4884C31.984 19.8654 32 19.3493 32 15.2157C32 11.0821 31.98 10.5661 31.904 8.94304C31.824 7.32383 31.5547 6.21816 31.16 5.24942C30.752 4.24899 30.2027 3.39945 29.3147 2.5537C28.4253 1.70796 27.5347 1.18556 26.48 0.798825C25.46 0.422236 24.2987 0.166105 22.596 0.0912943C20.8893 0.0152157 20.3467 0 16 0ZM16 2.73883C20.2707 2.73883 20.78 2.75911 22.4667 2.82886C24.0267 2.89859 24.8733 3.14458 25.436 3.35506C26.1853 3.63021 26.716 3.95989 27.2787 4.49117C27.8373 5.02372 28.184 5.52965 28.4733 6.24225C28.692 6.77734 28.9533 7.58249 29.024 9.06603C29.1 10.6713 29.1173 11.1531 29.1173 15.2157C29.1173 19.2783 29.0973 19.7614 29.0187 21.3654C28.9373 22.849 28.6773 23.6541 28.4573 24.1892C28.1587 24.9018 27.8187 25.4064 27.2587 25.9416C26.7 26.4728 26.16 26.8025 25.4187 27.0776C24.8587 27.2856 23.9987 27.5341 22.4387 27.6013C20.74 27.6736 20.24 27.69 15.96 27.69C11.6787 27.69 11.1787 27.671 9.48133 27.5963C7.92 27.5189 7.06 27.2716 6.5 27.0624C5.74133 26.7784 5.22 26.4551 4.66133 25.9225C4.1 25.3912 3.74133 24.8777 3.46133 24.1727C3.24133 23.6402 2.98267 22.8223 2.90133 21.3388C2.84133 19.7412 2.82 19.2479 2.82 15.1967C2.82 11.1443 2.84133 10.6498 2.90133 9.03306C2.98267 7.54953 3.24133 6.73295 3.46133 6.2004C3.74133 5.47766 4.1 4.98315 4.66133 4.44933C5.22 3.91805 5.74133 3.57569 6.5 3.31068C7.06 3.1002 7.90133 2.85295 9.46133 2.77687C11.1613 2.71981 11.6613 2.70079 15.94 2.70079L16 2.73883ZM16 7.40244C11.46 7.40244 7.784 10.9021 7.784 15.2157C7.784 19.5332 11.464 23.029 16 23.029C20.54 23.029 24.216 19.5294 24.216 15.2157C24.216 10.8983 20.536 7.40244 16 7.40244ZM16 20.2876C13.0533 20.2876 10.6667 18.018 10.6667 15.2157C10.6667 12.4135 13.0533 10.1438 16 10.1438C18.9467 10.1438 21.3333 12.4135 21.3333 15.2157C21.3333 18.018 18.9467 20.2876 16 20.2876ZM26.4613 7.09433C26.4613 8.10237 25.6 8.92021 24.5413 8.92021C23.4813 8.92021 22.6213 8.1011 22.6213 7.09433C22.6213 6.08755 23.4827 5.26971 24.5413 5.26971C25.5987 5.26844 26.4613 6.08755 26.4613 7.09433Z" fill="white"/>
</svg>
