<svg width="32" height="22" viewBox="0 0 32 22" fill="none" xmlns="http://www.w3.org/2000/svg">
<path d="M31.3307 3.34873C31.1499 2.70114 30.7934 2.11009 30.2968 1.63476C29.8003 1.15943 29.1811 0.816504 28.5013 0.640334C26.0067 -1.70049e-07 16 0 16 0C16 0 5.99333 -1.70049e-07 3.49733 0.640334C2.81788 0.816817 2.19906 1.15987 1.70277 1.63516C1.20648 2.11046 0.850122 2.70135 0.669333 3.34873C0 5.7376 0 10.7207 0 10.7207C0 10.7207 0 15.7039 0.669333 18.0928C0.850115 18.7404 1.20663 19.3314 1.70319 19.8067C2.19974 20.282 2.8189 20.6249 3.49867 20.8012C5.99333 21.4414 16 21.4414 16 21.4414C16 21.4414 26.0067 21.4414 28.5027 20.8012C29.1825 20.6251 29.8017 20.2822 30.2983 19.8069C30.7949 19.3315 31.1513 18.7404 31.332 18.0928C32 15.7039 32 10.7207 32 10.7207C32 10.7207 32 5.7376 31.3307 3.34873ZM12.7267 15.2449V6.19664L21.0907 10.7207L12.7267 15.2449Z" fill="white"/>
</svg>
