<svg width="32" height="32" viewBox="0 0 32 32" fill="none" xmlns="http://www.w3.org/2000/svg">
<path d="M22.6665 22.6533C20.8665 22.6533 19.7332 23.2133 18.7332 23.7199C17.8665 24.1599 17.1598 24.5199 15.9998 24.5199C14.7998 24.5199 14.1332 24.1866 13.2665 23.7199C12.2665 23.2133 11.1732 22.6533 9.33317 22.6533C7.49317 22.6533 6.39984 23.2133 5.39984 23.7199C4.8265 24.0133 4.31984 24.2666 3.7065 24.4133C3.1065 24.5466 2.6665 25.0266 2.6665 25.6266V25.7599C2.6665 26.5599 3.41317 27.1333 4.1865 26.9733C5.17317 26.7733 5.91984 26.3999 6.59984 26.0533C7.4665 25.6133 8.15984 25.2533 9.33317 25.2533C10.5065 25.2533 11.1998 25.5866 12.0665 26.0533C13.0665 26.5599 14.1598 27.1199 15.9998 27.1199C17.8398 27.1199 18.9332 26.5599 19.9332 26.0533C20.7998 25.6133 21.5065 25.2533 22.6665 25.2533C23.8665 25.2533 24.5332 25.5866 25.3998 26.0533C26.0932 26.3999 26.8398 26.7866 27.8398 26.9866C28.02 27.0218 28.2056 27.0169 28.3837 26.9725C28.5617 26.928 28.7279 26.845 28.8703 26.7292C29.0127 26.6135 29.128 26.4679 29.208 26.3027C29.288 26.1375 29.3307 25.9568 29.3332 25.7733V25.6533C29.3332 25.0399 28.8798 24.5599 28.2798 24.4266C27.6665 24.2933 27.1732 24.0399 26.5998 23.7333C25.5998 23.2133 24.4665 22.6533 22.6665 22.6533ZM22.6665 16.7199C20.8665 16.7199 19.7332 17.2933 18.7332 17.7866C17.8665 18.2133 17.1598 18.5866 15.9998 18.5866C14.7998 18.5866 14.1332 18.2533 13.2665 17.7866C12.2665 17.2799 11.1732 16.7199 9.33317 16.7199C7.49317 16.7199 6.39984 17.2933 5.39984 17.7866C4.8265 18.0666 4.31984 18.3333 3.69317 18.4799C3.1065 18.6133 2.6665 19.0933 2.6665 19.6933V19.8266C2.66658 20.0109 2.70773 20.1929 2.78697 20.3592C2.86621 20.5256 2.98154 20.6723 3.12457 20.7885C3.2676 20.9047 3.43474 20.9876 3.61382 21.0311C3.7929 21.0746 3.97943 21.0776 4.15984 21.0399C5.15984 20.8399 5.9065 20.4533 6.59984 20.1199C7.4665 19.6533 8.13317 19.3199 9.33317 19.3199C10.5332 19.3199 11.1998 19.6533 12.0665 20.1199C13.0665 20.6266 14.1598 21.1866 15.9998 21.1866C17.8398 21.1866 18.9332 20.6133 19.9332 20.1199C20.7998 19.6533 21.4665 19.3199 22.6665 19.3199C23.8665 19.3199 24.5332 19.6533 25.3998 20.1199C26.0932 20.4666 26.8398 20.8533 27.8398 21.0533C28.0211 21.0886 28.2079 21.0835 28.3869 21.0383C28.5659 20.993 28.7327 20.9088 28.8754 20.7916C29.0181 20.6744 29.1331 20.5271 29.2122 20.3603C29.2914 20.1935 29.3327 20.0113 29.3332 19.8266V19.7066C29.3332 19.0933 28.8798 18.6133 28.2798 18.4799C27.6665 18.3466 27.1732 18.0933 26.5998 17.7866C25.5998 17.2799 24.4665 16.7199 22.6665 16.7199ZM26.5998 5.94661C25.5998 5.43994 24.4932 4.87994 22.6665 4.87994C20.8398 4.87994 19.7332 5.43994 18.7332 5.94661C17.8665 6.37328 17.1598 6.74661 15.9998 6.74661C14.7998 6.74661 14.1332 6.41328 13.2665 5.94661C12.2665 5.45328 11.1732 4.87994 9.33317 4.87994C7.49317 4.87994 6.39984 5.43994 5.39984 5.94661C4.8265 6.23994 4.31984 6.49328 3.7065 6.63994C3.1065 6.77328 2.6665 7.25328 2.6665 7.85328V7.94661C2.6665 8.74661 3.3865 9.33328 4.15984 9.17328C5.15984 8.97328 5.9065 8.58661 6.59984 8.25328C7.4665 7.81328 8.15984 7.45328 9.33317 7.45328C10.5065 7.45328 11.1998 7.78661 12.0665 8.25328C13.0665 8.75994 14.1598 9.31994 15.9998 9.31994C17.8398 9.31994 18.9332 8.74661 19.9332 8.25328C20.7998 7.82661 21.5065 7.45328 22.6665 7.45328C23.8665 7.45328 24.5332 7.78661 25.3998 8.25328C26.0932 8.59994 26.8398 8.98661 27.8398 9.18661C28.0211 9.22197 28.2079 9.21685 28.3869 9.17161C28.5659 9.12638 28.7327 9.04215 28.8754 8.92495C29.0181 8.80776 29.1331 8.66048 29.2122 8.49366C29.2914 8.32683 29.3327 8.14458 29.3332 7.95994V7.83994C29.3332 7.22661 28.8798 6.74661 28.2798 6.61328C27.6665 6.47994 27.1732 6.23994 26.5998 5.94661ZM22.6665 10.7866C20.8665 10.7866 19.7332 11.3599 18.7332 11.8533C17.8665 12.3199 17.1998 12.6533 15.9998 12.6533C14.7998 12.6533 14.1332 12.3199 13.2665 11.8533C12.2665 11.3466 11.1732 10.7866 9.33317 10.7866C7.49317 10.7866 6.39984 11.3599 5.39984 11.8533C4.8265 12.1599 4.33317 12.4133 3.71984 12.5466C3.11984 12.6799 2.6665 13.1599 2.6665 13.7733V13.8933C2.66658 14.0776 2.70773 14.2595 2.78697 14.4259C2.86621 14.5923 2.98154 14.7389 3.12457 14.8551C3.2676 14.9714 3.43474 15.0542 3.61382 15.0977C3.7929 15.1412 3.97943 15.1443 4.15984 15.1066C5.15984 14.9066 5.9065 14.5199 6.59984 14.1866C7.4665 13.7599 8.17317 13.3866 9.33317 13.3866C10.4932 13.3866 11.1998 13.7199 12.0665 14.1866C13.0665 14.6933 14.1598 15.2533 15.9998 15.2533C17.8398 15.2533 18.9332 14.6799 19.9332 14.1866C20.7998 13.7599 21.5065 13.3866 22.6665 13.3866C23.8665 13.3866 24.5332 13.7199 25.3998 14.1866C26.0932 14.5333 26.8398 14.9199 27.8398 15.1199C28.02 15.1551 28.2056 15.1503 28.3837 15.1058C28.5617 15.0613 28.7279 14.9783 28.8703 14.8626C29.0127 14.7468 29.128 14.6012 29.208 14.436C29.288 14.2709 29.3307 14.0901 29.3332 13.9066V13.7866C29.3332 13.1733 28.8798 12.6933 28.2798 12.5599C27.6665 12.4266 27.1732 12.1733 26.5998 11.8666C25.5998 11.3466 24.4665 10.7866 22.6665 10.7866Z" fill="url(#paint0_linear_26_793)"/>
<defs>
<linearGradient id="paint0_linear_26_793" x1="15.9998" y1="4.87994" x2="15.9998" y2="27.1199" gradientUnits="userSpaceOnUse">
<stop stop-color="#FFBF00"/>
<stop offset="1" stop-color="#F2A50C"/>
</linearGradient>
</defs>
</svg>
