<svg width="20" height="20" viewBox="0 0 20 20" fill="none" xmlns="http://www.w3.org/2000/svg">
<path d="M16.667 3.33299H3.33299C2.41699 3.33299 1.67499 4.08299 1.67499 4.99999L1.66699 15C1.66699 15.917 2.41699 16.667 3.33299 16.667H16.667C17.583 16.667 18.333 15.917 18.333 15V4.99999C18.333 4.08299 17.583 3.33299 16.667 3.33299ZM16.333 6.87499L10.442 10.559C10.3091 10.6408 10.1561 10.6842 9.99999 10.6842C9.84391 10.6842 9.6909 10.6408 9.55799 10.559L3.66699 6.87499C3.5846 6.8275 3.51261 6.76389 3.45534 6.68797C3.39807 6.61204 3.35668 6.52536 3.33364 6.43309C3.3106 6.34082 3.30639 6.24485 3.32126 6.15091C3.33613 6.05698 3.36977 5.967 3.42017 5.88636C3.47058 5.80571 3.53671 5.73604 3.61464 5.68152C3.69256 5.62699 3.78066 5.58872 3.8737 5.56899C3.96673 5.54927 4.06279 5.54849 4.15613 5.5667C4.24948 5.58491 4.3382 5.62174 4.41699 5.67499L9.99999 9.16699L15.583 5.67499C15.6618 5.62174 15.7505 5.58491 15.8439 5.5667C15.9372 5.54849 16.0332 5.54927 16.1263 5.56899C16.2193 5.58872 16.3074 5.62699 16.3853 5.68152C16.4633 5.73604 16.5294 5.80571 16.5798 5.88636C16.6302 5.967 16.6639 6.05698 16.6787 6.15091C16.6936 6.24485 16.6894 6.34082 16.6663 6.43309C16.6433 6.52536 16.6019 6.61204 16.5446 6.68797C16.4874 6.76389 16.4154 6.8275 16.333 6.87499Z" fill="url(#paint0_linear_27_298)"/>
<defs>
<linearGradient id="paint0_linear_27_298" x1="9.99999" y1="3.33299" x2="9.99999" y2="16.667" gradientUnits="userSpaceOnUse">
<stop stop-color="#FFBF00"/>
<stop offset="1" stop-color="#F2A50C"/>
</linearGradient>
</defs>
</svg>
