<svg width="20" height="20" viewBox="0 0 20 20" fill="none" xmlns="http://www.w3.org/2000/svg">
<g opacity="0.6">
<path d="M10.333 2C5.75 2 2 5.75 2 10.333C2 14.916 5.75 18.666 10.333 18.666C14.916 18.666 18.666 14.916 18.666 10.333C18.666 5.75 14.916 2 10.333 2ZM13.291 13.5L9.891 11.408C9.76859 11.3349 9.66733 11.2311 9.59719 11.107C9.52705 10.9829 9.49045 10.8426 9.491 10.7V6.791C9.49538 6.62507 9.56386 6.46729 9.68207 6.35076C9.80028 6.23423 9.95902 6.16801 10.125 6.166C10.2904 6.16731 10.4486 6.23357 10.5655 6.3505C10.6824 6.46743 10.7487 6.62564 10.75 6.791V10.499L13.95 12.424C14.25 12.608 14.35 12.999 14.166 13.3C14.0755 13.4415 13.9331 13.5417 13.7694 13.5791C13.6058 13.6165 13.4339 13.5881 13.291 13.5Z" fill="url(#paint0_linear_27_300)"/>
</g>
<defs>
<linearGradient id="paint0_linear_27_300" x1="10.333" y1="2" x2="10.333" y2="18.666" gradientUnits="userSpaceOnUse">
<stop stop-color="#FFBF00"/>
<stop offset="1" stop-color="#F2A50C"/>
</linearGradient>
</defs>
</svg>
