<svg width="20" height="20" viewBox="0 0 20 20" fill="none" xmlns="http://www.w3.org/2000/svg">
<path d="M10 1.66701C6.50001 1.66701 3.33301 4.35001 3.33301 8.50001C3.33301 11.15 5.37501 14.267 9.45001 17.858C9.604 17.9909 9.80061 18.064 10.004 18.064C10.2074 18.064 10.404 17.9909 10.558 17.858C14.625 14.267 16.667 11.15 16.667 8.50001C16.667 4.35001 13.5 1.66701 10 1.66701ZM10 10C9.08301 10 8.33301 9.25001 8.33301 8.33301C8.33301 7.41601 9.08301 6.66601 10 6.66601C10.917 6.66601 11.667 7.41601 11.667 8.33301C11.667 9.25001 10.917 10 10 10Z" fill="url(#paint0_linear_27_294)"/>
<defs>
<linearGradient id="paint0_linear_27_294" x1="10" y1="1.66701" x2="10" y2="18.064" gradientUnits="userSpaceOnUse">
<stop stop-color="#FFBF00"/>
<stop offset="1" stop-color="#F2A50C"/>
</linearGradient>
</defs>
</svg>
