<svg width="32" height="32" viewBox="0 0 32 32" fill="none" xmlns="http://www.w3.org/2000/svg">
<path d="M16.0002 10.6667C13.0535 10.6667 10.6668 13.0534 10.6668 16C10.6668 18.9467 13.0535 21.3334 16.0002 21.3334C18.9468 21.3334 21.3335 18.9467 21.3335 16C21.3335 13.0534 18.9468 10.6667 16.0002 10.6667ZM27.9202 14.6667C27.6181 11.9629 26.4057 9.44209 24.4819 7.5183C22.5581 5.59451 20.0373 4.38206 17.3335 4.08004V2.66671C17.3335 1.93337 16.7335 1.33337 16.0002 1.33337C15.2668 1.33337 14.6668 1.93337 14.6668 2.66671V4.08004C11.963 4.38206 9.44221 5.59451 7.51842 7.5183C5.59463 9.44209 4.38218 11.9629 4.08016 14.6667H2.66683C1.9335 14.6667 1.3335 15.2667 1.3335 16C1.3335 16.7334 1.9335 17.3334 2.66683 17.3334H4.08016C4.38218 20.0372 5.59463 22.558 7.51842 24.4818C9.44221 26.4056 11.963 27.618 14.6668 27.92V29.3334C14.6668 30.0667 15.2668 30.6667 16.0002 30.6667C16.7335 30.6667 17.3335 30.0667 17.3335 29.3334V27.92C20.0373 27.618 22.5581 26.4056 24.4819 24.4818C26.4057 22.558 27.6181 20.0372 27.9202 17.3334H29.3335C30.0668 17.3334 30.6668 16.7334 30.6668 16C30.6668 15.2667 30.0668 14.6667 29.3335 14.6667H27.9202ZM16.0002 25.3334C10.8402 25.3334 6.66683 21.16 6.66683 16C6.66683 10.84 10.8402 6.66671 16.0002 6.66671C21.1602 6.66671 25.3335 10.84 25.3335 16C25.3335 21.16 21.1602 25.3334 16.0002 25.3334Z" fill="url(#paint0_linear_26_797)"/>
<defs>
<linearGradient id="paint0_linear_26_797" x1="16.0002" y1="1.33337" x2="16.0002" y2="30.6667" gradientUnits="userSpaceOnUse">
<stop stop-color="#FFBF00"/>
<stop offset="1" stop-color="#F2A50C"/>
</linearGradient>
</defs>
</svg>
