<svg width="18" height="10" viewBox="0 0 18 10" fill="none" xmlns="http://www.w3.org/2000/svg">
<path fill-rule="evenodd" clip-rule="evenodd" d="M11.676 0.341509C12.0397 -0.0741276 12.6714 -0.116245 13.0871 0.247437L17.6585 4.24744C17.8755 4.43733 18 4.71165 18 5.00001C18 5.28838 17.8755 5.5627 17.6585 5.75259L13.0871 9.75259C12.6714 10.1163 12.0397 10.0742 11.676 9.65852C11.3123 9.24288 11.3544 8.61112 11.7701 8.24744L14.3386 6.00001H1C0.447715 6.00001 0 5.5523 0 5.00001C0 4.44773 0.447715 4.00001 1 4.00001H14.3386L11.7701 1.75259C11.3544 1.38891 11.3123 0.757146 11.676 0.341509Z" fill="black"/>
</svg>
