<svg width="18" height="10" viewBox="0 0 18 10" fill="none" xmlns="http://www.w3.org/2000/svg">
<path d="M1 4C0.447715 4 0 4.44772 0 5C0 5.55228 0.447715 6 1 6V4ZM17 5L17.6585 5.75258C17.8755 5.56269 18 5.28836 18 5C18 4.71164 17.8755 4.43731 17.6585 4.24742L17 5ZM13.0871 0.247423C12.6714 -0.116259 12.0397 -0.0741412 11.676 0.341495C11.3123 0.757132 11.3544 1.38889 11.7701 1.75258L13.0871 0.247423ZM11.7701 8.24742C11.3544 8.61111 11.3123 9.24287 11.676 9.6585C12.0397 10.0741 12.6714 10.1163 13.0871 9.75258L11.7701 8.24742ZM1 6H17V4H1V6ZM17.6585 4.24742L13.0871 0.247423L11.7701 1.75258L16.3415 5.75258L17.6585 4.24742ZM16.3415 4.24742L11.7701 8.24742L13.0871 9.75258L17.6585 5.75258L16.3415 4.24742Z" fill="#332200"/>
</svg>
