<svg width="32" height="32" viewBox="0 0 32 32" fill="none" xmlns="http://www.w3.org/2000/svg">
<path d="M8.06652 10.7333C6.32089 12.4792 5.33802 14.8455 5.33303 17.3144C5.32803 19.7833 6.30131 22.1536 8.03985 23.9066C9.99985 19.3733 13.4932 15.5866 17.8532 13.3333C14.0899 16.5175 11.5496 20.91 10.6665 25.7599C14.1332 27.3999 18.3999 26.7999 21.2665 23.9333C25.2532 19.9466 26.3732 9.07994 26.6132 6.09327C26.6215 5.99837 26.609 5.90279 26.5764 5.81326C26.5439 5.72373 26.4921 5.64242 26.4247 5.57506C26.3574 5.5077 26.2761 5.45591 26.1865 5.42335C26.097 5.3908 26.0014 5.37825 25.9065 5.38661C22.9199 5.62661 12.0532 6.74661 8.06652 10.7333Z" fill="url(#paint0_linear_26_801)"/>
<defs>
<linearGradient id="paint0_linear_26_801" x1="15.9744" y1="5.38409" x2="15.9744" y2="26.6592" gradientUnits="userSpaceOnUse">
<stop stop-color="#FFBF00"/>
<stop offset="1" stop-color="#F2A50C"/>
</linearGradient>
</defs>
</svg>
