<svg width="32" height="32" viewBox="0 0 32 32" fill="none" xmlns="http://www.w3.org/2000/svg">
<circle cx="16" cy="16" r="16" fill="white"/>
<path d="M23.5833 13.8333H22.695L20.8533 8.76325C20.7009 8.3452 20.4239 7.98396 20.0597 7.72825C19.6955 7.47255 19.2617 7.33468 18.8167 7.33325H17.0833C16.4875 7.33325 16 7.82075 16 8.41659C16 9.01242 16.4875 9.49992 17.0833 9.49992H18.8167L20.3983 13.8333H15.1875L14.7975 12.7499H14.895C15.4908 12.7499 15.9783 12.2624 15.9783 11.6666C15.9783 11.0708 15.4908 10.5833 14.895 10.5833H11.6667C11.0708 10.5833 10.5833 11.0708 10.5833 11.6666C10.5833 12.2624 11.0708 12.7499 11.6667 12.7499H12.4792L14.4508 18.1666H13.725C13.2483 15.7508 11.2225 13.9633 8.6875 13.8441C5.65417 13.6924 3 16.2166 3 19.2499C3 22.2833 5.38333 24.6666 8.41667 24.6666C11.0817 24.6666 13.2375 22.8358 13.725 20.3333H18.275C18.7517 22.7491 20.7775 24.5366 23.3125 24.6558C26.3458 24.7966 29 22.2833 29 19.2391C29 16.2166 26.6167 13.8333 23.5833 13.8333ZM9.5 20.3333H11.4717C11.0167 21.6658 9.73833 22.5866 8.2 22.4891C6.58583 22.3916 5.2425 21.0266 5.16667 19.4016C5.09083 17.5058 6.5425 15.9999 8.41667 15.9999C9.8575 15.9999 11.0383 16.8991 11.4717 18.1666H9.5C8.90417 18.1666 8.41667 18.6541 8.41667 19.2499C8.41667 19.8458 8.90417 20.3333 9.5 20.3333ZM18.275 18.1666H16.7583L15.9675 15.9999H19.25C18.7733 16.6283 18.4267 17.3541 18.275 18.1666ZM23.4533 22.4999C21.785 22.4349 20.3767 21.0158 20.3333 19.3366C20.3117 18.2966 20.7558 17.3866 21.4708 16.7799L22.1425 18.6216C22.3483 19.1849 22.9658 19.4774 23.5292 19.2716C24.0925 19.0658 24.385 18.4483 24.1792 17.8849L23.4967 16.0108L23.5075 15.9999C23.9418 15.9851 24.3747 16.0585 24.7799 16.2156C25.1851 16.3727 25.5543 16.6103 25.8651 16.914C26.1759 17.2178 26.422 17.5814 26.5884 17.9828C26.7548 18.3843 26.8381 18.8153 26.8333 19.2499C26.8333 21.1133 25.3383 22.5649 23.4533 22.4999Z" fill="url(#paint0_linear_37_151)"/>
<defs>
<linearGradient id="paint0_linear_37_151" x1="16" y1="7.33325" x2="16" y2="24.6666" gradientUnits="userSpaceOnUse">
<stop stop-color="#FFB60D"/>
<stop offset="1" stop-color="#E59317"/>
</linearGradient>
</defs>
</svg>
